<mxfile host="app.diagrams.net" modified="2024-08-11T21:26:46.672Z" agent="Mozilla/5.0 (Macintosh; Intel Mac OS X 10_15_7) AppleWebKit/537.36 (KHTML, like Gecko) Chrome/127.0.0.0 Safari/537.36" etag="SLL90rR5GRdHefJG0jdi" border="50" scale="3" compressed="false" locked="false" version="24.6.5" type="github">
  <diagram name="Blank" id="YmL12bMKpDGza6XwsDPr">
    <mxGraphModel dx="1649" dy="1085" grid="0" gridSize="10" guides="1" tooltips="1" connect="1" arrows="1" fold="1" page="0" pageScale="1" pageWidth="827" pageHeight="1169" background="none" math="1" shadow="0">
      <root>
        <mxCell id="X5NqExCQtvZxIxQ7pmgY-0" />
        <mxCell id="1" parent="X5NqExCQtvZxIxQ7pmgY-0" />
        <mxCell id="dXjExCPtLtWmxMdgUvX7-1" value="Estado" style="ellipse;whiteSpace=wrap;html=1;aspect=fixed;" vertex="1" parent="1">
          <mxGeometry x="281" y="202" width="80" height="80" as="geometry" />
        </mxCell>
        <mxCell id="dXjExCPtLtWmxMdgUvX7-2" value="Incidencia" style="ellipse;whiteSpace=wrap;html=1;aspect=fixed;" vertex="1" parent="1">
          <mxGeometry x="287" y="331" width="80" height="80" as="geometry" />
        </mxCell>
        <mxCell id="dXjExCPtLtWmxMdgUvX7-3" value="Prioridad" style="ellipse;whiteSpace=wrap;html=1;aspect=fixed;" vertex="1" parent="1">
          <mxGeometry x="423" y="221" width="80" height="80" as="geometry" />
        </mxCell>
        <mxCell id="dXjExCPtLtWmxMdgUvX7-4" value="Responsable" style="ellipse;whiteSpace=wrap;html=1;aspect=fixed;" vertex="1" parent="1">
          <mxGeometry x="302" y="524" width="78" height="78" as="geometry" />
        </mxCell>
        <mxCell id="dXjExCPtLtWmxMdgUvX7-5" value="Causa raíz" style="ellipse;whiteSpace=wrap;html=1;aspect=fixed;" vertex="1" parent="1">
          <mxGeometry x="443" y="388" width="80" height="80" as="geometry" />
        </mxCell>
        <mxCell id="dXjExCPtLtWmxMdgUvX7-6" value="Categoría" style="ellipse;whiteSpace=wrap;html=1;aspect=fixed;" vertex="1" parent="1">
          <mxGeometry x="135" y="323" width="80" height="80" as="geometry" />
        </mxCell>
        <mxCell id="dXjExCPtLtWmxMdgUvX7-7" value="Bug" style="ellipse;whiteSpace=wrap;html=1;aspect=fixed;" vertex="1" parent="1">
          <mxGeometry x="15" y="221" width="80" height="80" as="geometry" />
        </mxCell>
        <mxCell id="dXjExCPtLtWmxMdgUvX7-8" value="Mejora" style="ellipse;whiteSpace=wrap;html=1;aspect=fixed;" vertex="1" parent="1">
          <mxGeometry x="22" y="319" width="80" height="80" as="geometry" />
        </mxCell>
        <mxCell id="dXjExCPtLtWmxMdgUvX7-9" value="Consulta" style="ellipse;whiteSpace=wrap;html=1;aspect=fixed;" vertex="1" parent="1">
          <mxGeometry x="24" y="418" width="80" height="80" as="geometry" />
        </mxCell>
        <mxCell id="dXjExCPtLtWmxMdgUvX7-10" value="Alta" style="ellipse;whiteSpace=wrap;html=1;aspect=fixed;" vertex="1" parent="1">
          <mxGeometry x="558" y="144" width="80" height="80" as="geometry" />
        </mxCell>
        <mxCell id="dXjExCPtLtWmxMdgUvX7-11" value="Baja" style="ellipse;whiteSpace=wrap;html=1;aspect=fixed;" vertex="1" parent="1">
          <mxGeometry x="571" y="272" width="80" height="80" as="geometry" />
        </mxCell>
        <mxCell id="dXjExCPtLtWmxMdgUvX7-12" value="UI" style="ellipse;whiteSpace=wrap;html=1;aspect=fixed;" vertex="1" parent="1">
          <mxGeometry x="-135" y="195" width="80" height="80" as="geometry" />
        </mxCell>
        <mxCell id="dXjExCPtLtWmxMdgUvX7-13" value="Backend" style="ellipse;whiteSpace=wrap;html=1;aspect=fixed;" vertex="1" parent="1">
          <mxGeometry x="-130" y="288" width="80" height="80" as="geometry" />
        </mxCell>
        <mxCell id="dXjExCPtLtWmxMdgUvX7-16" value="" style="endArrow=classic;html=1;rounded=0;entryX=0.288;entryY=0.963;entryDx=0;entryDy=0;entryPerimeter=0;exitX=0.988;exitY=0.35;exitDx=0;exitDy=0;exitPerimeter=0;" edge="1" parent="1" source="dXjExCPtLtWmxMdgUvX7-2" target="dXjExCPtLtWmxMdgUvX7-3">
          <mxGeometry width="50" height="50" relative="1" as="geometry">
            <mxPoint x="389" y="492" as="sourcePoint" />
            <mxPoint x="439" y="442" as="targetPoint" />
          </mxGeometry>
        </mxCell>
        <mxCell id="dXjExCPtLtWmxMdgUvX7-17" value="" style="endArrow=classic;html=1;rounded=0;exitX=1;exitY=1;exitDx=0;exitDy=0;entryX=0.05;entryY=0.363;entryDx=0;entryDy=0;entryPerimeter=0;" edge="1" parent="1" source="dXjExCPtLtWmxMdgUvX7-2" target="dXjExCPtLtWmxMdgUvX7-5">
          <mxGeometry width="50" height="50" relative="1" as="geometry">
            <mxPoint x="389" y="492" as="sourcePoint" />
            <mxPoint x="439" y="442" as="targetPoint" />
          </mxGeometry>
        </mxCell>
        <mxCell id="dXjExCPtLtWmxMdgUvX7-19" value="" style="endArrow=classic;html=1;rounded=0;exitX=0.988;exitY=0.263;exitDx=0;exitDy=0;exitPerimeter=0;" edge="1" parent="1" source="dXjExCPtLtWmxMdgUvX7-3" target="dXjExCPtLtWmxMdgUvX7-10">
          <mxGeometry width="50" height="50" relative="1" as="geometry">
            <mxPoint x="507" y="258" as="sourcePoint" />
            <mxPoint x="557" y="208" as="targetPoint" />
          </mxGeometry>
        </mxCell>
        <mxCell id="dXjExCPtLtWmxMdgUvX7-20" value="" style="endArrow=classic;html=1;rounded=0;exitX=1;exitY=1;exitDx=0;exitDy=0;entryX=0;entryY=0.5;entryDx=0;entryDy=0;" edge="1" parent="1" source="dXjExCPtLtWmxMdgUvX7-3" target="dXjExCPtLtWmxMdgUvX7-11">
          <mxGeometry width="50" height="50" relative="1" as="geometry">
            <mxPoint x="389" y="492" as="sourcePoint" />
            <mxPoint x="439" y="442" as="targetPoint" />
          </mxGeometry>
        </mxCell>
        <mxCell id="dXjExCPtLtWmxMdgUvX7-21" value="" style="endArrow=classic;html=1;rounded=0;entryX=0.988;entryY=0.688;entryDx=0;entryDy=0;entryPerimeter=0;" edge="1" parent="1" source="dXjExCPtLtWmxMdgUvX7-6" target="dXjExCPtLtWmxMdgUvX7-7">
          <mxGeometry width="50" height="50" relative="1" as="geometry">
            <mxPoint x="389" y="492" as="sourcePoint" />
            <mxPoint x="439" y="442" as="targetPoint" />
          </mxGeometry>
        </mxCell>
        <mxCell id="dXjExCPtLtWmxMdgUvX7-22" value="" style="endArrow=classic;html=1;rounded=0;entryX=1;entryY=0.5;entryDx=0;entryDy=0;" edge="1" parent="1" source="dXjExCPtLtWmxMdgUvX7-6" target="dXjExCPtLtWmxMdgUvX7-8">
          <mxGeometry width="50" height="50" relative="1" as="geometry">
            <mxPoint x="389" y="492" as="sourcePoint" />
            <mxPoint x="439" y="442" as="targetPoint" />
          </mxGeometry>
        </mxCell>
        <mxCell id="dXjExCPtLtWmxMdgUvX7-23" value="" style="endArrow=classic;html=1;rounded=0;exitX=0;exitY=1;exitDx=0;exitDy=0;" edge="1" parent="1" source="dXjExCPtLtWmxMdgUvX7-6" target="dXjExCPtLtWmxMdgUvX7-9">
          <mxGeometry width="50" height="50" relative="1" as="geometry">
            <mxPoint x="389" y="492" as="sourcePoint" />
            <mxPoint x="439" y="442" as="targetPoint" />
          </mxGeometry>
        </mxCell>
        <mxCell id="dXjExCPtLtWmxMdgUvX7-24" value="" style="endArrow=classic;html=1;rounded=0;exitX=0.613;exitY=0.988;exitDx=0;exitDy=0;exitPerimeter=0;" edge="1" parent="1" source="dXjExCPtLtWmxMdgUvX7-2" target="dXjExCPtLtWmxMdgUvX7-4">
          <mxGeometry width="50" height="50" relative="1" as="geometry">
            <mxPoint x="389" y="492" as="sourcePoint" />
            <mxPoint x="346" y="519" as="targetPoint" />
          </mxGeometry>
        </mxCell>
        <mxCell id="dXjExCPtLtWmxMdgUvX7-26" value="" style="endArrow=classic;html=1;rounded=0;entryX=1;entryY=0.5;entryDx=0;entryDy=0;exitX=0;exitY=0.5;exitDx=0;exitDy=0;" edge="1" parent="1" source="dXjExCPtLtWmxMdgUvX7-2" target="dXjExCPtLtWmxMdgUvX7-6">
          <mxGeometry width="50" height="50" relative="1" as="geometry">
            <mxPoint x="389" y="492" as="sourcePoint" />
            <mxPoint x="439" y="442" as="targetPoint" />
          </mxGeometry>
        </mxCell>
        <mxCell id="dXjExCPtLtWmxMdgUvX7-27" value="" style="endArrow=classic;html=1;rounded=0;entryX=0.588;entryY=0.975;entryDx=0;entryDy=0;entryPerimeter=0;" edge="1" parent="1" source="dXjExCPtLtWmxMdgUvX7-2" target="dXjExCPtLtWmxMdgUvX7-1">
          <mxGeometry width="50" height="50" relative="1" as="geometry">
            <mxPoint x="389" y="492" as="sourcePoint" />
            <mxPoint x="439" y="442" as="targetPoint" />
          </mxGeometry>
        </mxCell>
      </root>
    </mxGraphModel>
  </diagram>
</mxfile>
